<?xml version="1.0" encoding="UTF-8"?>
<svg xmlns="http://www.w3.org/2000/svg" version="1.1" viewBox="0 0 512 512">
  <defs>
    <style>
      .cls-1, .cls-2, .cls-3 {
        fill: #fff;
      }

      .cls-2 {
        display: none;
      }

      .cls-4 {
        fill: #52ac32;
      }

      .cls-3 {
        stroke: #1d1e1c;
        stroke-miterlimit: 10;
        stroke-width: .25px;
      }
    </style>
  </defs>
  <!-- Generator: Adobe Illustrator 28.6.0, SVG Export Plug-In . SVG Version: 1.2.0 Build 709)  -->
  <g>
    <g id="Calque_1">
      <g>
        <path class="cls-2" d="M143.03,161S45.33,110.89,12.58,196.98c0,0-19.12,48.52,21.64,80.42,0,0-35.08,42.36-5.43,82.88,28.82,39.36,67.17,44.17,96.42,30.72,0,0-26.25,32.49-63.02,52.1,0,0-10.01,15.44,4.89,30.29,14.91,14.85,21.4,9.25,21.4,9.25,0,0,26.88-25.68,57.97-66.75,0,0-6.41,68.54,63.09,86.02,0,0,36.01,13.26,68.79-24.86,0,0,41.35,39.49,86.72,6.51,45.41-33,46.47-76.45,6.47-132.18,0,0,82.26,40.05,119.32-22.52,37.01-62.58-12.07-94.3-12.07-94.3,0,0,36.72-49.44.55-89.19-36.15-39.76-81.12-41.39-128.34-4.79,0,0,44.64-81.15-24.38-121.69,0,0-51.16-33.14-92.49,15.05,0,0-47.22-40.25-94.89,2.75-52.73,47.52-14.85,105.11,3.82,124.32Z"/>
        <path class="cls-3" d="M81.15,484.7c-4.52-1.25-9.59-4.71-15.13-10.19-15.61-15.58-5.24-32.05-5.11-32.23.13-.22.33-.38.57-.5,27.71-14.81,49.62-37.23,58.4-46.93-14.43,5.24-29.57,5.88-44.23,1.83-18.34-5.04-34.54-17.02-48.07-35.5-27.17-37.13-.92-76.18,4.56-83.5C-7.53,245.4,10.97,196.93,11.14,196.44c22.74-59.72,76.52-54.75,106.54-46.49,8.04,2.22,14.73,4.74,19.35,6.66-13.52-16.04-27.03-41.17-26.18-66.8.65-20.23,9.84-38.48,27.33-54.24,25.44-22.96,50.79-22.27,67.58-17.65,14.43,4,24.76,11.3,28.13,13.89,25.16-28.51,53.74-28.14,73.38-22.73,11.99,3.3,19.8,8.29,20.14,8.52,58.75,34.53,36.16,98.72,27.58,118.06,28.37-20.49,55.69-27.3,81.27-20.25,15.83,4.39,30.71,14.09,44.14,28.95,33.36,36.62,5.85,81.75.43,89.82,7.57,5.74,45.19,38.14,11.29,95.45-25.84,43.68-73.5,38.14-99.57,30.95-7.12-1.97-12.91-4.12-16.71-5.67,37.84,55.05,34.58,97.55-9.88,129.86-17.64,12.78-36.64,16.5-56.52,11.02-15.98-4.43-27.41-13.48-31.02-16.57-29.35,33.14-61.5,26.36-67.74,24.66-1.1-.32-1.67-.51-1.67-.51-.67-.18-1.46-.39-2.26-.6-56.87-15.7-61.82-66.37-61.94-82.24-29.59,38.55-55.02,62.93-55.27,63.17-.37.3-3.01,2.47-8.39.99Z"/>
      </g>
      <path class="cls-4" d="M318.98,25.17c-46.63-29.52-84.75,20.37-84.75,20.37-47.03-45.22-90.37-1.79-90.37-1.79-53.2,52.36,12.59,127.34,12.59,127.34,0,0-106.02-47.05-135.42,28.27-18.24,46.62,25.01,77.17,25.01,77.17,0,0-53.84,54.65,6.96,97.9,60.79,43.21,125.92-31.46,125.92-31.46,0,0-51.1,88.57-.79,132.1,4.9,4.25,9.68,7.7,14.34,10.46l-.04-.03c50.31,29.85,85.22-21.04,85.22-21.04,14.71,15.65,66.41,48.71,104.27-7.86,37.82-56.57-32.65-124.33-32.65-124.33,0,0,82.55,58.09,128.16.33,45.57-57.74-11.59-99.14-11.59-99.14,45.21-41.28,8.99-104.52-45.49-110.97-41.57-4.89-89.39,41.87-89.39,41.87,26.41-39.04,42.82-97.7-6.32-135.28-1.9-1.46-3.79-2.75-5.66-3.91Z"/>
      <path class="cls-4" d="M160.13,369.19l-9.63,23s-33.35,55.31-63.73,81.68c0,0-26.16-3.92-17.62-23.03,0,0,56.38-39.89,90.98-81.65Z"/>
      <g>
        <path class="cls-1" d="M84.69,337.67c-.19,2.67-.61,5.04-1.26,7.14-.65,2.09-1.44,3.9-2.37,5.41-.93,1.51-1.96,2.76-3.08,3.73-1.12.98-2.25,1.68-3.39,2.11-.98.37-1.95.54-2.91.52-.96-.03-1.85-.24-2.67-.64-.82-.4-1.54-.99-2.17-1.77-.62-.78-1.09-1.75-1.4-2.89-.37-1.35-.48-3.18-.34-5.47.14-2.29.42-4.78.84-7.48.42-2.69.91-5.48,1.47-8.37.56-2.88,1.07-5.61,1.52-8.18.45-2.57.79-4.85,1.01-6.84.22-1.99.21-3.45-.05-4.37-.1-.36-.2-.59-.32-.7.19-.11.38-.21.57-.3.19-.09.39-.18.58-.25.75-.28,1.59-.48,2.54-.58.95-.1,1.85-.09,2.71.04.86.13,1.61.39,2.26.79.65.4,1.07.96,1.26,1.67.15.57.13,1.43-.09,2.57-.21,1.14-.51,2.44-.89,3.9-.38,1.46-.8,3.04-1.25,4.75-.45,1.7-.83,3.4-1.16,5.09-.21,1.14-.43,2.49-.66,4.05-.23,1.56-.41,3.13-.54,4.72-.14,1.58-.2,3.09-.21,4.53,0,1.44.11,2.58.34,3.44.33,1.21.88,1.67,1.67,1.37.79-.3,1.56-.75,2.33-1.35.77-.6,1.5-1.29,2.21-2.05.7-.76,1.35-1.53,1.94-2.33.59-.79,1.09-1.54,1.5-2.25Z"/>
        <path class="cls-1" d="M103.15,322.17c.63-.42,1.2-.73,1.72-.91.72-.25,1.41-.37,2.09-.35.68.02,1.31.14,1.89.36s1.07.53,1.46.94c.39.41.66.89.81,1.45.06.22,0,.72-.19,1.5-.19.78-.37,1.66-.56,2.66-.19,1-.34,2.03-.45,3.08-.11,1.05-.06,1.99.16,2.8.1.37.37.48.8.32.32-.11.71-.37,1.16-.78.46-.41.91-.87,1.36-1.39.45-.52.87-1.09,1.28-1.7.4-.61.72-1.2.96-1.77l.12-.04c.25,1.25.3,2.62.15,4.11-.15,1.49-.49,2.92-1.04,4.29-.55,1.37-1.33,2.62-2.33,3.75-1.01,1.13-2.24,1.95-3.71,2.47-.76.27-1.47.37-2.14.3s-1.29-.25-1.85-.56c-.56-.31-1.07-.71-1.53-1.22-.46-.51-.85-1.04-1.18-1.62-1.07,2.2-2.27,3.96-3.62,5.27-1.35,1.31-2.72,2.21-4.11,2.7-2.11.75-4.06.61-5.85-.42-1.8-1.02-3.05-2.87-3.76-5.54-.56-2.11-.72-4.25-.46-6.4.25-2.16.79-4.26,1.61-6.32.82-2.06,1.88-4.02,3.16-5.9,1.28-1.87,2.71-3.59,4.28-5.14,1.57-1.55,3.2-2.89,4.9-4.02,1.7-1.13,3.37-1.98,5-2.56,1.87-.66,3.46-.83,4.76-.5,1.3.33,2.13,1.12,2.46,2.38.35,1.3.1,2.92-.72,4.88-1.36.12-2.6.37-3.71.77-2.11.75-3.93,1.89-5.48,3.43-1.55,1.54-2.81,3.18-3.79,4.9-.98,1.73-1.65,3.39-2.03,5.01-.38,1.61-.45,2.85-.22,3.7.25.93.79,1.24,1.62.94.75-.27,1.57-.97,2.44-2.11.87-1.14,1.66-2.46,2.37-3.97.71-1.51,1.27-3.06,1.7-4.65.43-1.59.59-2.98.49-4.16ZM97.56,298c1.43.95,2.77,1.65,4.02,2.1,1.25.45,2.47.75,3.66.89,1.19.15,2.36.19,3.49.13,1.14-.06,2.32-.14,3.55-.26-.11,1.22-.55,2.42-1.33,3.6-.77,1.19-1.81,2.01-3.13,2.48-1.27.45-2.6.77-3.99.96-1.39.19-2.68.22-3.89.1-1.21-.12-2.25-.43-3.12-.93-.87-.5-1.43-1.21-1.68-2.14-.22-.81-.15-1.78.21-2.9.35-1.12,1.08-2.46,2.19-4.03Z"/>
        <path class="cls-1" d="M118.51,334.98c-.12-.43-.07-.95.13-1.58.2-.63.46-1.28.78-1.96.32-.68.65-1.36.99-2.03.34-.67.62-1.27.82-1.8,1.01-.32,1.99-.59,2.96-.8.97-.21,1.88-.28,2.73-.21.85.08,1.59.34,2.22.8.63.46,1.07,1.19,1.34,2.18s.23,2.11-.14,3.24c-.37,1.13-.94,2.22-1.7,3.28-.76,1.06-1.63,2.05-2.6,2.98-.97.93-1.9,1.71-2.78,2.34.32-.76.52-1.41.59-1.93.08-.53.07-.97-.03-1.33-.15-.57-.49-.97-1.01-1.19-.52-.22-1.08-.39-1.68-.51-.6-.12-1.15-.27-1.66-.45-.51-.19-.83-.53-.97-1.03Z"/>
        <path class="cls-1" d="M176.44,296.9c-.89,4.49-2.06,8.45-3.51,11.88-1.45,3.43-3.05,6.35-4.81,8.75-1.75,2.4-3.59,4.32-5.51,5.78-1.92,1.45-3.79,2.44-5.61,2.97-1.57.45-3.08.57-4.53.35-1.45-.22-2.75-.74-3.9-1.56-1.16-.82-2.12-1.95-2.88-3.39-.77-1.44-1.26-3.16-1.47-5.15-.25-2.36-.01-5.48.71-9.34.72-3.86,1.71-8.04,2.95-12.53,1.24-4.49,2.61-9.13,4.11-13.93,1.5-4.79,2.88-9.33,4.15-13.6,1.26-4.27,2.29-8.08,3.07-11.41.78-3.33,1.09-5.81.92-7.43-.07-.62-.17-1.04-.33-1.25.31-.15.62-.29.93-.41.31-.12.62-.23.94-.32,1.19-.35,2.52-.52,3.98-.53,1.46,0,2.82.18,4.09.55,1.27.37,2.35.95,3.25,1.75.89.8,1.41,1.82,1.54,3.06.11,1-.13,2.44-.71,4.34-.58,1.9-1.32,4.05-2.23,6.46-.91,2.41-1.9,5.02-2.96,7.83-1.06,2.81-2.03,5.62-2.9,8.43-.58,1.9-1.21,4.15-1.91,6.75-.7,2.6-1.33,5.24-1.89,7.9-.56,2.66-1,5.21-1.33,7.64-.33,2.43-.41,4.4-.25,5.89.22,2.11.96,2.99,2.22,2.63,1.26-.36,2.53-.99,3.83-1.88,1.3-.89,2.57-1.91,3.8-3.07,1.24-1.16,2.39-2.36,3.46-3.6,1.07-1.24,1.99-2.42,2.78-3.54Z"/>
        <path class="cls-1" d="M207.13,277.25c1.04-.57,1.98-.96,2.8-1.16,1.14-.28,2.22-.33,3.25-.17,1.02.17,1.95.48,2.78.95.83.47,1.49,1.07,2,1.81.5.74.8,1.58.9,2.51.04.37-.17,1.17-.62,2.4-.46,1.23-.94,2.64-1.46,4.23-.51,1.59-.97,3.24-1.38,4.93-.41,1.69-.54,3.22-.39,4.59.07.62.45.85,1.14.68.51-.12,1.15-.47,1.94-1.04.78-.57,1.58-1.24,2.37-2.01.8-.77,1.57-1.61,2.32-2.52.75-.91,1.37-1.82,1.86-2.7l.19-.05c.09,2.08-.15,4.33-.7,6.72-.56,2.4-1.41,4.66-2.55,6.79-1.14,2.13-2.6,4.01-4.38,5.65-1.78,1.64-3.84,2.75-6.18,3.32-1.2.29-2.31.32-3.31.09-1-.24-1.89-.66-2.67-1.27-.78-.61-1.46-1.37-2.04-2.28-.58-.91-1.06-1.86-1.42-2.86-2.11,3.38-4.34,6.01-6.68,7.89-2.34,1.88-4.62,3.08-6.83,3.62-3.36.82-6.28.22-8.77-1.79-2.49-2.01-3.97-5.25-4.44-9.73-.37-3.54-.13-7.05.74-10.51.87-3.46,2.16-6.79,3.87-9.98,1.71-3.19,3.75-6.19,6.12-9,2.37-2.81,4.91-5.32,7.64-7.55,2.72-2.22,5.5-4.09,8.33-5.61,2.83-1.52,5.54-2.59,8.14-3.22,2.98-.72,5.42-.69,7.32.09,1.9.78,2.97,2.23,3.19,4.34.23,2.18-.5,4.78-2.2,7.8-2.09-.07-4.02.12-5.79.55-3.36.82-6.38,2.33-9.08,4.55-2.69,2.22-4.97,4.64-6.84,7.26-1.87,2.62-3.27,5.21-4.2,7.77-.93,2.56-1.32,4.55-1.17,5.98.16,1.56.91,2.17,2.24,1.85,1.2-.29,2.59-1.28,4.17-2.97,1.58-1.69,3.07-3.7,4.48-6.02,1.41-2.32,2.62-4.73,3.62-7.24,1-2.51,1.56-4.73,1.68-6.68ZM204.13,236.84c1.95,1.82,3.82,3.22,5.61,4.19,1.79.97,3.57,1.68,5.35,2.15,1.77.46,3.52.76,5.26.88,1.73.12,3.55.21,5.44.26-.44,1.96-1.38,3.83-2.82,5.61-1.44,1.78-3.2,2.93-5.29,3.44-2.03.49-4.11.76-6.25.8-2.14.04-4.11-.15-5.91-.57-1.8-.42-3.3-1.13-4.51-2.11-1.21-.98-1.9-2.25-2.06-3.8-.14-1.37.18-2.93.97-4.68.79-1.75,2.2-3.8,4.23-6.14Z"/>
        <path class="cls-1" d="M227.5,302.83c-.08-.75.1-1.62.55-2.63.45-1.01.99-2.05,1.62-3.13.63-1.08,1.29-2.14,1.96-3.2.67-1.05,1.22-2,1.65-2.85,1.59-.31,3.15-.54,4.67-.68,1.52-.14,2.91-.05,4.18.27,1.27.32,2.33.94,3.18,1.85.84.91,1.36,2.24,1.54,3.98.19,1.8-.12,3.61-.94,5.42-.82,1.81-1.92,3.52-3.32,5.13-1.39,1.61-2.93,3.09-4.61,4.43-1.68,1.35-3.26,2.45-4.73,3.31.65-1.21,1.1-2.25,1.33-3.12.23-.87.32-1.62.25-2.24-.11-1-.53-1.74-1.26-2.23-.74-.49-1.55-.9-2.43-1.23-.88-.33-1.69-.71-2.42-1.14-.73-.43-1.14-1.08-1.23-1.95Z"/>
      </g>
      <g>
        <path class="cls-1" d="M313.54,260.06c-1.71,6.42-3.73,11.99-6.05,16.72-2.32,4.73-4.78,8.66-7.37,11.79-2.59,3.13-5.23,5.55-7.91,7.24-2.69,1.7-5.25,2.72-7.7,3.08-2.11.3-4.1.13-5.96-.54-1.86-.66-3.5-1.74-4.91-3.22-1.41-1.48-2.52-3.37-3.35-5.69-.82-2.31-1.25-4.96-1.28-7.95-.03-3.55.66-8.09,2.09-13.63,1.43-5.54,3.23-11.48,5.41-17.82,2.18-6.35,4.55-12.88,7.1-19.61,2.55-6.73,4.92-13.1,7.11-19.12,2.18-6.02,3.99-11.4,5.43-16.14,1.43-4.74,2.14-8.33,2.12-10.75,0-.93-.1-1.57-.27-1.92.42-.15.84-.28,1.26-.39.42-.11.84-.19,1.26-.25,1.6-.23,3.36-.18,5.26.15,1.9.33,3.66.92,5.27,1.76,1.61.84,2.95,1.96,4.02,3.35,1.07,1.39,1.61,3.02,1.63,4.88.01,1.49-.47,3.57-1.46,6.24-.99,2.67-2.23,5.68-3.72,9.02-1.49,3.35-3.1,6.97-4.84,10.87-1.74,3.9-3.35,7.83-4.83,11.78-.99,2.67-2.1,5.84-3.33,9.53-1.23,3.68-2.38,7.43-3.44,11.23-1.06,3.8-1.96,7.46-2.69,10.98-.73,3.52-1.08,6.4-1.06,8.64.03,3.18.89,4.64,2.57,4.4,1.69-.24,3.43-.87,5.24-1.88,1.81-1.01,3.59-2.22,5.35-3.65,1.76-1.42,3.41-2.92,4.96-4.5,1.55-1.58,2.9-3.11,4.07-4.59Z"/>
        <path class="cls-1" d="M355.78,238.67c1.42-.58,2.68-.92,3.78-1.01,1.51-.12,2.92.06,4.24.56,1.31.5,2.47,1.2,3.49,2.1,1.02.9,1.81,1.95,2.37,3.17.56,1.22.84,2.52.86,3.92,0,.56-.36,1.69-1.11,3.38-.74,1.7-1.54,3.65-2.41,5.87-.86,2.22-1.66,4.53-2.4,6.93-.74,2.4-1.09,4.62-1.08,6.68,0,.93.47,1.36,1.4,1.29.67-.06,1.55-.41,2.64-1.06,1.09-.65,2.2-1.44,3.32-2.38,1.13-.93,2.23-1.98,3.32-3.15,1.08-1.16,2-2.34,2.75-3.52l.25-.02c-.14,3.1-.72,6.34-1.74,9.74-1.02,3.4-2.4,6.53-4.14,9.38-1.74,2.85-3.87,5.27-6.37,7.25-2.51,1.98-5.32,3.1-8.43,3.36-1.6.13-3.03-.1-4.3-.7-1.27-.6-2.37-1.44-3.31-2.53-.94-1.09-1.73-2.38-2.37-3.87s-1.14-3.01-1.49-4.57c-3.16,4.46-6.37,7.79-9.63,9.97-3.26,2.18-6.37,3.4-9.31,3.64-4.46.37-8.18-1.24-11.16-4.83-2.98-3.59-4.5-8.74-4.56-15.46-.05-5.32.7-10.43,2.26-15.32,1.55-4.89,3.64-9.48,6.25-13.76,2.61-4.28,5.63-8.19,9.05-11.75,3.42-3.55,7.03-6.63,10.84-9.23,3.81-2.6,7.64-4.67,11.5-6.2,3.86-1.53,7.51-2.44,10.96-2.72,3.95-.32,7.12.33,9.49,1.95,2.37,1.63,3.57,4.03,3.6,7.2.03,3.27-1.24,6.92-3.81,10.97-2.7-.62-5.23-.83-7.58-.64-4.46.37-8.57,1.85-12.33,4.45-3.76,2.6-7.02,5.6-9.77,9-2.75,3.4-4.88,6.87-6.41,10.41-1.53,3.54-2.28,6.38-2.26,8.53.02,2.34.92,3.43,2.68,3.28,1.6-.13,3.52-1.25,5.78-3.35,2.25-2.1,4.44-4.69,6.56-7.76,2.12-3.07,3.98-6.33,5.59-9.78,1.61-3.45,2.61-6.59,3.01-9.43ZM356.87,178.31c2.3,3.18,4.55,5.7,6.76,7.57,2.21,1.88,4.43,3.38,6.67,4.5,2.24,1.13,4.48,1.99,6.72,2.6,2.24.61,4.58,1.19,7.02,1.74-.82,2.78-2.27,5.3-4.35,7.58-2.08,2.27-4.51,3.52-7.29,3.75-2.69.22-5.43.1-8.21-.38-2.78-.47-5.32-1.25-7.6-2.32s-4.15-2.48-5.59-4.24c-1.45-1.75-2.18-3.79-2.2-6.13-.02-2.05.59-4.28,1.83-6.67,1.24-2.39,3.32-5.06,6.24-8.01Z"/>
        <path class="cls-1" d="M376.67,281.13c.08-1.43.34-2.75.78-3.97.43-1.22.94-2.44,1.51-3.66.57-1.22,1.1-2.49,1.59-3.8.49-1.32.82-2.73,1-4.25,1.34.42,3.1.65,5.29.67,2.18.02,4.29.16,6.33.41,2.03.26,3.78.79,5.23,1.59,1.45.81,2.12,2.21,2.01,4.2-.06,1.05-.34,2.25-.83,3.62-.49,1.37-1.05,2.8-1.68,4.3-.63,1.5-1.25,3.01-1.83,4.51-.59,1.51-.97,2.92-1.14,4.25-.46-.01-1.16-.01-2.12,0-.96.02-2.03,0-3.21-.03-1.45-.05-2.95-.17-4.49-.36-1.54-.19-2.95-.57-4.24-1.13-1.29-.56-2.33-1.36-3.14-2.38-.81-1.03-1.16-2.34-1.07-3.96ZM388.34,251.94c.12-2.09.84-4.71,2.17-7.86,1.32-3.15,2.94-6.71,4.86-10.7,1.92-3.98,4.03-8.3,6.35-12.94,2.32-4.64,4.53-9.47,6.65-14.5,2.11-5.02,3.99-10.2,5.62-15.53,1.63-5.33,2.78-10.64,3.46-15.95,1.27.14,3.31.25,6.13.34,2.82.09,5.66.44,8.54,1.06,2.88.62,5.37,1.65,7.47,3.09,2.1,1.45,3.07,3.6,2.9,6.45-.21,3.52-1.1,7.13-2.68,10.84-1.58,3.71-3.56,7.58-5.93,11.59-2.37,4.02-5.01,8.15-7.89,12.39-2.89,4.24-5.76,8.65-8.62,13.22-2.86,4.57-5.53,9.3-8,14.17-2.47,4.87-4.49,9.9-6.07,15.09-1.82-.06-3.62-.33-5.41-.81-1.79-.49-3.41-1.18-4.86-2.08-1.45-.9-2.61-2.01-3.49-3.32s-1.27-2.82-1.17-4.54Z"/>
      </g>
    </g>
  </g>
</svg>